{"title":"Rocky Jones Space Ranger - Crash of the Moons BW (1954) DVDRip x","uid":11059566,"size":629324291,"categoryP":"video","categoryS":"movies","magnet":"?xt=urn:btih:1704d4ca69048fb8a5d7c80b95791bec69bf13c7&amp;dn=Rocky+Jones+Space+Ranger+-+Crash+of+the+Moons+BW+%281954%29+DVDRip+x&amp;tr=udp%3A%2F%2Ftracker.openbittorrent.com%3A80&amp;tr=udp%3A%2F%2Fopen.demonii.com%3A1337&amp;tr=udp%3A%2F%2Ftracker.coppersurfer.tk%3A6969&amp;tr=udp%3A%2F%2Fexodus.desync.com%3A6969","seeders":1,"leechers":0,"uploader":"peaSoup","files":-1,"time":1411156212,"description":" &lt;a href=&quot;http://i.imgur.com/6wAV6C5.jpg&quot; rel=&quot;nofollow&quot; target=&quot;_NEW&quot;&gt;http://i.imgur.com/6wAV6C5.jpg&lt;/a&gt;                                                      &lt;a href=&quot; http://i.imgur.com/NuJ8c52.jpg&quot; rel=&quot;nofollow&quot; target=&quot;_NEW&quot;&gt; http://i.imgur.com/NuJ8c52.jpg&lt;/a&gt;                                                      &lt;a href=&quot; http://i.imgur.com/mOgu7xH.jpg&quot; rel=&quot;nofollow&quot; target=&quot;_NEW&quot;&gt; http://i.imgur.com/mOgu7xH.jpg&lt;/a&gt;                                                       Format                                   : MPEG-4\nFormat profile                           : Base Media / Version 2\nCodec ID                                 : mp42\nFile size                                : 600 MiB\nDuration                                 : 1h 12mn\nOverall bit rate mode                    : Variable\nOverall bit rate                         : 1 165 Kbps\nEncoded date                             : UTC 2014-09-19 16:36:31\nTagged date                              : UTC 2014-09-19 16:44:45\nWriting application                      : HandBrake 0.9.9 2013052900\n\nVideo\nID                                       : 1\nFormat                                   : AVC\nFormat/Info                              : Advanced Video Codec\nFormat profile                           : &lt;a class=&quot;__cf_email__&quot; href=&quot;/cdn-cgi/l/email-protection&quot; data-cfemail=&quot;501d31393e101c647e60&quot;&gt;[email&amp;#160;protected]&lt;/a&gt;&lt;script data-cfhash='f9e31' type=&quot;text/javascript&quot;&gt;\n/* &lt;![CDATA[ */!function(){try{var t=&quot;currentScript&quot;in document?document.currentScript:function(){for(var t=document.getElementsByTagName(&quot;script&quot;),e=t.length;e--;)if(t[e].getAttribute(&quot;data-cfhash&quot;))return t[e]}();if(t&amp;&amp;t.previousSibling){var e,r,n,i,c=t.previousSibling,a=c.getAttribute(&quot;data-cfemail&quot;);if(a){for(e=&quot;&quot;,r=parseInt(a.substr(0,2),16),n=2;a.length-n;n+=2)i=parseInt(a.substr(n,2),16)^r,e+=String.fromCharCode(i);e=document.createTextNode(e),c.parentNode.replaceChild(e,c)}t.parentNode.removeChild(t);}}catch(u){}}()/* ]]&gt; */&lt;/script&gt;\nFormat settings, CABAC                   : Yes\nFormat settings, ReFrames                : 4 frames\nCodec ID                                 : avc1\nCodec ID/Info                            : Advanced Video Coding\nDuration                                 : 1h 12mn\nBit rate                                 : 1 000 Kbps\nWidth                                    : 720 pixels\nHeight                                   : 480 pixels\nDisplay aspect ratio                     : 4:3\nOriginal display aspect ratio            : 4:3\nFrame rate mode                          : Variable\nFrame rate                               : 29.970 fps\nMinimum frame rate                       : 14.985 fps\nMaximum frame rate                       : 29.970 fps\nStandard                                 : NTSC\nColor space                              : YUV\nChroma subsampling                       : 4:2:0\nBit depth                                : 8 bits\nScan type                                : Progressive\nBits/(Pixel*Frame)                       : 0.097\nStream size                              : 515 MiB (86%)\nWriting library                          : x264 core 130 r2273 b3065e6\n\n\n\nAudio\nID                                       : 2\nFormat                                   : AAC\nFormat/Info                              : Advanced Audio Codec\nFormat profile                           : LC\nCodec ID                                 : 40\nDuration                                 : 1h 12mn\nBit rate mode                            : Variable\nBit rate                                 : 160 Kbps\nMaximum bit rate                         : 183 Kbps\nChannel(s)                               : 2 channels\nChannel positions                        : Front: L R\nSampling rate                            : 48.0 KHz\nCompression mode                         : Lossy\nStream size                              : 82.4 MiB (14%)\nEncoded date                             : UTC 2014-09-19 16:36:31\nTagged date                              : UTC 2014-09-19 16:44:43\n\n","torrent":{"xt":"urn:btih:1704d4ca69048fb8a5d7c80b95791bec69bf13c7","amp;dn":"Rocky+Jones+Space+Ranger+-+Crash+of+the+Moons+BW+%281954%29+DVDRip+x","amp;tr":["udp%3A%2F%2Ftracker.openbittorrent.com%3A80","udp%3A%2F%2Fopen.demonii.com%3A1337","udp%3A%2F%2Ftracker.coppersurfer.tk%3A6969","udp%3A%2F%2Fexodus.desync.com%3A6969"],"infoHash":"1704d4ca69048fb8a5d7c80b95791bec69bf13c7","infoHashBuffer":{"type":"Buffer","data":[23,4,212,202,105,4,143,184,165,215,200,11,149,121,27,236,105,191,19,199]},"announce":[],"urlList":[]}}